<?xml version="1.0" standalone="no"?>
<!DOCTYPE svg PUBLIC "-//W3C//DTD SVG 20010904//EN"
 "http://www.w3.org/TR/2001/REC-SVG-20010904/DTD/svg10.dtd">
<svg version="1.0" xmlns="http://www.w3.org/2000/svg"
 width="222.000000pt" height="287.000000pt" viewBox="0 0 222.000000 287.000000"
 preserveAspectRatio="xMidYMid meet">
<metadata>
Created by potrace 1.14, written by Peter Selinger 2001-2017
</metadata>
<g transform="translate(0.000000,287.000000) scale(0.100000,-0.100000)"
fill="#000000" stroke="none">
<path d="M570 2514 c-272 -178 -505 -333 -517 -345 l-23 -21 0 -688 c0 -641 1
-689 18 -708 23 -28 1011 -677 1042 -685 20 -5 112 51 545 330 286 185 525
344 532 352 9 12 12 179 13 702 0 640 -1 688 -17 708 -16 18 -62 49 -227 151
-87 53 -18 -4 92 -77 64 -42 119 -80 122 -84 3 -4 4 -204 3 -446 -1 -241 -2
-547 -2 -680 l-1 -242 -52 -39 c-29 -21 -102 -69 -163 -107 -60 -37 -135 -85
-167 -106 -31 -22 -60 -39 -64 -39 -4 0 -24 -10 -43 -23 -172 -111 -532 -342
-547 -351 -11 -6 -114 59 -232 146 -29 21 -90 62 -136 91 -47 29 -129 82 -183
118 -54 36 -117 77 -140 90 -81 47 -334 220 -338 232 -2 7 -6 308 -8 669 -5
752 -18 660 98 733 35 22 203 133 372 246 169 113 322 214 338 224 92 57 222
178 188 174 -5 0 -231 -146 -503 -325z"/>
<path d="M600 1390 l0 -910 95 0 95 0 0 415 0 415 95 0 95 0 0 -415 0 -415 80
0 80 0 0 545 0 545 245 0 245 0 0 115 0 115 -245 0 -245 0 0 180 0 180 335 0
335 0 0 70 0 70 -495 0 -495 0 0 -70 0 -70 80 0 80 0 0 -360 0 -360 -95 0 -95
0 0 430 0 430 -95 0 -95 0 0 -910z"/>
</g>
</svg>
